<?xml version="1.0" encoding="UTF-8" standalone="no"?>
<svg
   xmlns:dc="http://purl.org/dc/elements/1.1/"
   xmlns:cc="http://creativecommons.org/ns#"
   xmlns:rdf="http://www.w3.org/1999/02/22-rdf-syntax-ns#"
   xmlns:svg="http://www.w3.org/2000/svg"
   xmlns="http://www.w3.org/2000/svg"
   xmlns:sodipodi="http://sodipodi.sourceforge.net/DTD/sodipodi-0.dtd"
   xmlns:inkscape="http://www.inkscape.org/namespaces/inkscape"
   fill="#000000"
   height="24"
   viewBox="0 0 24 24"
   width="24"
   id="svg2"
   version="1.1"
   inkscape:version="0.91 r13725"
   sodipodi:docname="icons.svg">
  <metadata
     id="metadata12">
    <rdf:RDF>
      <cc:Work
         rdf:about="">
        <dc:format>image/svg+xml</dc:format>
        <dc:type
           rdf:resource="http://purl.org/dc/dcmitype/StillImage" />
        <dc:title></dc:title>
      </cc:Work>
    </rdf:RDF>
  </metadata>
  <defs
     id="defs10" />
  <sodipodi:namedview
     pagecolor="#ffffff"
     bordercolor="#666666"
     borderopacity="1"
     objecttolerance="10"
     gridtolerance="10"
     guidetolerance="10"
     inkscape:pageopacity="0"
     inkscape:pageshadow="2"
     inkscape:window-width="1528"
     inkscape:window-height="877"
     id="namedview8"
     showgrid="false"
     inkscape:zoom="9.8333333"
     inkscape:cx="11.635647"
     inkscape:cy="35.381433"
     inkscape:window-x="64"
     inkscape:window-y="-8"
     inkscape:window-maximized="1"
     inkscape:current-layer="svg2" />
  <path
     d="M0 0h24v24H0z"
     fill="none"
     id="path4" />
  <path
     d="m -10.37702,-22.380962 c 1.2352779,0 2.2459599,-1.010682 2.2459599,-2.24596 0,-1.235277 -1.010682,-2.245959 -2.2459599,-2.245959 -1.235278,0 -2.24596,1.010682 -2.24596,2.245959 0,1.235278 1.010682,2.24596 2.24596,2.24596 z m -4.155026,3.818132 -3.144343,15.8340163 2.358257,0 2.021364,-8.9838393 2.358258,2.2459603 0,6.737879 2.2459599,0 0,-8.4223493 -2.3582579,-2.24596 0.673788,-3.368939 c 1.4598739,1.684469 3.7058339,2.807449 6.1763889,2.807449 l 0,-2.24596 c -2.133661,0 -3.930429,-1.122979 -4.828813,-2.695151 l -1.1229799,-1.796768 c -0.449192,-0.673788 -1.12298,-1.12298 -1.909066,-1.12298 -0.336894,0 -0.56149,0.112298 -0.898384,0.112298 l -5.839495,2.470556 0,5.278005 2.24596,0 0,-3.818131 2.021363,-0.786086"
     id="path6"
     inkscape:connector-curvature="0"
     style="stroke:none;fill:#000000;stroke-width:1;stroke-miterlimit:3.2;stroke-dasharray:1, 2;stroke-dashoffset:0;stroke-linecap:round;stroke-linejoin:miter" />
  <path
     inkscape:connector-curvature="0"
     d="m -25.946797,38.240443 14.311841,11.469272 c 0.79196,0.622254 1.9304016,0.572756 2.6587216,-0.155564 l 7.071067,-7.071067 c 0.72832,-0.72832 0.777817,-1.866762 0.155563,-2.658721 L -13.218876,25.512521 Z m 15.082586,-6.597307 -8.951971,8.951972 -3.139553,-2.5173 9.567154,-9.567154 z"
     id="path6-7-8"
     sodipodi:nodetypes="ccsscccccccc" />
  <g
     id="g4195">
    <path
       sodipodi:nodetypes="ccsscccccccc"
       id="path6-7"
       d="m -21.711864,2 2.01,18.23 c 0.12,1 0.96,1.77 1.99,1.77 l 9.9999996,0 c 1.03,0 1.87,-0.77 1.99,-1.77 l 2.01,-18.23 z m 15.3299996,5.9999997 -12.6599996,0 L -19.481864,4 -5.9518644,4 Z"
       inkscape:connector-curvature="0" />
    <text
       sodipodi:linespacing="125%"
       id="text4191"
       y="18.551653"
       x="-36.537773"
       style="font-style:normal;font-weight:normal;font-size:19.6918354px;line-height:125%;font-family:sans-serif;letter-spacing:0px;word-spacing:0px;fill:#000000;fill-opacity:1;stroke:none;stroke-width:1px;stroke-linecap:butt;stroke-linejoin:miter;stroke-opacity:1"
       xml:space="preserve"><tspan
         y="18.551653"
         x="-36.537773"
         id="tspan4193"
         sodipodi:role="line">+</tspan></text>
  </g>
</svg>
